<svg id="Layer_1" data-name="Layer 1" xmlns="http://www.w3.org/2000/svg" viewBox="0 0 1183.17 1068.12"><defs><style>.cls-1{fill:#fff;}</style></defs><title>hash--white</title><path class="cls-1" d="M698,584.17c-3.73,17.54,7.9,31.9,25.84,31.9h80.26c17.94,0,35.67-14.36,39.4-31.9l18.2-85.65,9.93-46.73c1.74-8.16,6.21-29.18,9.94-46.73l16.68-78.51c3.73-17.55,8.2-38.57,9.94-46.73l9.93-46.73L959.2,39.93C962.93,22.38,951.3,8,933.36,8H853.1c-17.94,0-35.67,14.36-39.4,31.91L772.64,233.09l-9.93,46.73c-1.73,8.16-6.2,29.18-9.93,46.73l-16.69,78.51c-3.73,17.55-8.2,38.57-9.93,46.73S720,481,716.22,498.52Z" transform="translate(-8.83 -7.28)"/><path class="cls-1" d="M600.39,1043.5c-3.73,17.55,7.89,31.9,25.83,31.9h80.26c17.94,0,35.67-14.35,39.4-31.9L787.1,849.59c3.73-17.54-7.9-31.9-25.84-31.9H681c-17.94,0-35.67,14.36-39.4,31.9Z" transform="translate(-8.83 -7.28)"/><path class="cls-1" d="M502.81,498.52c3.73-17.55-7.9-31.91-25.84-31.91H396.71c-17.94,0-35.67,14.36-39.4,31.91L339.1,584.17c-3.73,17.54-8.2,38.57-9.93,46.73l-9.93,46.73-16.69,78.5-9.93,46.73c-1.74,8.16-6.21,29.19-9.94,46.73l-41.05,193.17c-3.73,17.55,7.89,31.9,25.83,31.9h80.26c17.94,0,35.67-14.35,39.4-31.9l41.06-193.17c3.73-17.54,8.2-38.57,9.93-46.73s6.21-29.18,9.94-46.73l16.68-78.5c3.73-17.55,8.2-38.58,9.94-46.73s6.2-29.19,9.93-46.73Z" transform="translate(-8.83 -7.28)"/><path class="cls-1" d="M600.44,39.19c3.73-17.55-7.9-31.91-25.84-31.91H494.34c-17.94,0-35.67,14.36-39.4,31.91l-41.21,193.9C410,250.64,421.62,265,439.56,265h80.26c17.94,0,35.67-14.36,39.4-31.91Z" transform="translate(-8.83 -7.28)"/><path class="cls-1" d="M288.93,677.63c3.73-17.55-7.9-31.91-25.84-31.91H65.61c-17.94,0-35.67,14.36-39.4,31.91L9.52,756.13C5.79,773.68,17.42,788,35.36,788H232.84c17.94,0,35.67-14.36,39.4-31.91Z" transform="translate(-8.83 -7.28)"/><path class="cls-1" d="M845.59,645.72H534.45c-17.94,0-35.67,14.36-39.4,31.91l-16.69,78.5c-3.73,17.55,7.9,31.91,25.84,31.91h557.15c17.94,0,35.67-14.36,39.4-31.91l16.69-78.5c3.73-17.55-7.9-31.91-25.84-31.91h-246Z" transform="translate(-8.83 -7.28)"/><path class="cls-1" d="M968,294.65c-17.94,0-35.67,14.35-39.4,31.9L911.9,405.06c-3.73,17.55,7.9,31.9,25.84,31.9h197.48c17.94,0,35.67-14.35,39.4-31.9l16.68-78.51c3.73-17.55-7.89-31.9-25.83-31.9Z" transform="translate(-8.83 -7.28)"/><path class="cls-1" d="M355.24,437H666.38c17.94,0,35.67-14.35,39.4-31.9l16.69-78.51c3.73-17.55-7.9-31.9-25.84-31.9H139.47c-17.94,0-35.67,14.35-39.4,31.9L83.39,405.06c-3.73,17.55,7.89,31.9,25.83,31.9h246Z" transform="translate(-8.83 -7.28)"/></svg>