<svg id="Layer_1" data-name="Layer 1" xmlns="http://www.w3.org/2000/svg" viewBox="0 0 1440 335.6"><title>hashmapSVG</title><path d="M13.06,265.36c1-4.94,2-9.89,3.15-14.8,2.42-10.31,8-15.11,18.54-15.28q23.6-.39,47.19-.11c9.3.1,13.22,4.46,12,13.67a125.4,125.4,0,0,1-4.33,18.65c-2,6.58-6.87,10.38-13.62,10.49-17.32.29-34.65.18-52,.06-5.31,0-9-3-11-7.88Z" transform="translate(-13.06 -32.76)"/><path d="M1024.8,158.13V277.6H1005V120.34h26.34c17.76,39.9,35.79,80.43,54.71,123L1140.94,120h24.87V277.71h-19.34V158.18l-2.08-.48q-26.58,60-53.21,120.09h-10.47q-26.88-59.84-53.9-120Z" transform="translate(-13.06 -32.76)"/><path d="M284.37,32.85c4,0,8-.22,12,0,6.44.45,8.75,2.73,8.19,9.24a177.92,177.92,0,0,1-3.33,20.48q-15,72.44-30.2,144.82c-3.55,16.83-5.06,17.79-22.58,17.79-4.8,0-9.61,0-14.39-.27-9-.57-12.12-4.09-10.58-13,2.08-12.08,4.69-24.07,7.29-36.05Q244.31,113.44,258,51c.45-2.08,1-4.14,1.58-6.2,2.6-9.47,5.2-11.55,15.18-11.93,3.2-.12,6.4,0,9.6,0Z" transform="translate(-13.06 -32.76)"/><path d="M135.86,121.26q36.38,0,72.75,0a57.48,57.48,0,0,1,9.56.51c7,1.19,10.34,4.5,9.51,11.38a170.86,170.86,0,0,1-5.57,26.43c-1.58,5.48-6.09,8.58-12.17,8.67-2.92,0-5.85.29-8.78.29q-73.14,0-146.3,0a80.48,80.48,0,0,1-9.57-.45c-6.93-.83-9.58-3.61-8.71-10.63a172.15,172.15,0,0,1,4.68-24.27c2.19-8,7.84-11.47,17.06-11.5C84.16,121.63,135.86,121.4,135.86,121.26Z" transform="translate(-13.06 -32.76)"/><path d="M102.12,368.35c-1.41-.06-4.6-.15-7.79-.38-9.58-.7-12.64-4-11-13.27,2.44-13.9,5.48-27.7,8.33-41.53q12-57.92,24-115.83c.7-3.37,1.31-7,3.07-9.84,1.87-3,4.64-6.43,7.77-7.52,10-3.45,20.47-3.13,30.74-.77,4.35,1,5.52,4.92,5.14,8.87-.74,7.67-1.36,15.42-2.94,22.95-7.27,34.68-14.9,69.29-22.29,103.94-2.5,11.73-4.47,23.57-7,35.28-3.4,15.52-6.32,17.74-22.21,18.1C106.58,368.38,105.25,368.35,102.12,368.35Z" transform="translate(-13.06 -32.76)"/><path d="M537.34,277.67H517.7V206.54H436.24v71H416.19V120.12H435.8v66.32h81.41v-66.1h20.13Z" transform="translate(-13.06 -32.76)"/><path d="M867.4,186.45h81.4V120.22h20V277.54H949v-71.2H868.11v71.17H847.83V120.14H867.4Z" transform="translate(-13.06 -32.76)"/><path d="M260,235.09q37.22,0,74.43,0a57,57,0,0,1,8.76.58c4.52.74,7.14,3.56,7.19,8.22a57.09,57.09,0,0,1-.66,8.75c-3,20.62-8.47,25.67-29.23,25.73q-69.23.19-138.45-.06c-19.64-.07-24.2-6.19-19.71-25.38.18-.77.44-1.53.64-2.31,3.46-12.82,7-15.7,20.21-15.73,25.61-.07,51.21,0,76.82,0Z" transform="translate(-13.06 -32.76)"/><path d="M591.75,238.26l-17.28,39.39H552.9c23.54-52.72,46.86-105,70.31-157.5h19.15c22.42,52.08,44.94,104.41,67.79,157.52H687.51l-16.63-39.41Zm71-19.8-30.73-72.73-31.61,72.73Z" transform="translate(-13.06 -32.76)"/><path d="M1297.84,238.05h-78.95l-17.48,39.78h-21.57c23.65-53,47-105.22,70.39-157.7h19.15l67.81,157.57h-22.6Zm-8-19.54c-10.33-24.45-20.15-47.66-30-70.86l-1.73.27-30.69,70.59Z" transform="translate(-13.06 -32.76)"/><path d="M818.85,138.88l-17.07,11.94c-6.66-9.76-15.26-15.94-26.8-15.8a61.88,61.88,0,0,0-19.53,3.1c-9.23,3.26-14.56,10.43-15.35,20.55s2.82,18.07,11.82,22.62c7.09,3.58,14.72,6.11,22.21,8.85,6.75,2.48,13.83,4.14,20.4,7,15.35,6.7,24.89,17.86,25.74,35.38.88,18.14-5.94,32.14-21.45,41.82-20.62,12.86-65.68,11.15-84.34-19.17l18.36-12.09c1.45,2,2.52,3.49,3.61,5,11.28,15.32,34.76,19.95,50.95,10,8.39-5.17,12.68-12.64,12.54-22.63-.14-9.79-5.54-16-13.9-19.69-7-3.12-14.53-5.25-21.73-8-8.43-3.28-17.34-5.84-25-10.42-22.58-13.44-26.51-45.95-8.75-65.3C750.4,110.3,800.6,109.06,818.85,138.88Z" transform="translate(-13.06 -32.76)"/><path d="M1352.68,119.06c21,.69,41.18,1.07,61.36,2.23,5.42.3,11,2.36,16,4.67,15.6,7.24,23.08,19.84,23,37s-7.6,29.62-23,37.16c-8.79,4.31-18.27,5.65-28,5.67-9.52,0-19,0-29.29,0v71.66h-20.11Zm20.39,19.12V186.9c10.87,0,21.2.17,31.53-.09a44.92,44.92,0,0,0,11.78-1.93c13-3.94,19.48-16.08,15.33-29a22,22,0,0,0-19.34-15.84C1399.52,138.64,1386.52,138.75,1373.07,138.18Z" transform="translate(-13.06 -32.76)"/><path d="M297,167.68c-1.35-.35-3.19-2.46-3.13-3.85.59-13.1,2.06-24.3,6.64-35.2,2.07-4.94,7.05-6.61,12-6.71,17.07-.34,34.15-.53,51.22-.38,5.65.06,9.7,4,9.39,9.9a199.12,199.12,0,0,1-3.57,26.83c-1,5.15-5.27,8-10.31,8.93a67.19,67.19,0,0,1-11.9,1.3c-14.14.18-28.29.27-42.43.05A29,29,0,0,1,297,167.68Z" transform="translate(-13.06 -32.76)"/><path d="M230.36,287.5c3.72,0,7.47-.23,11.17.05,6.32.49,10.54,4.44,9.44,10.36q-5.16,27.82-11.63,55.38c-1.38,5.9-6.77,9.25-12.54,9.77A130.38,130.38,0,0,1,203,363c-6.18-.58-8.58-4.11-8.83-10.37a27.93,27.93,0,0,1,.52-7.14c3.16-14.28,6.18-28.6,9.82-42.75,3.38-13.12,6.5-15.15,20.25-15.36,1.86,0,3.73,0,5.59,0Z" transform="translate(-13.06 -32.76)"/><path d="M139,110a4.43,4.43,0,0,1-1.53-2.74,42.17,42.17,0,0,1,.69-7.21c3.3-16.75,6.95-33.42,10.2-50.17,1.5-7.77,6.22-11.75,13.66-12.17a187.33,187.33,0,0,1,23.93,0c6.7.47,9,3.4,8.2,10.15-1,8.18-2.72,16.3-4.51,24.37-2,9.1-4.39,18.14-6.75,27.16-1.55,5.91-5.23,10.44-11.4,10.92-9.53.74-19.13.53-28.71.5A7,7,0,0,1,139,110Z" transform="translate(-13.06 -32.76)"/></svg>